<svg width="442" height="368" viewBox="0 0 442 368" fill="none" xmlns="http://www.w3.org/2000/svg">
<path d="M407.5 137.44L434.313 128.154L424.001 238.524L295.901 356.584L300.211 322.088C300.211 322.088 242.449 284.949 198.091 269.479L146.508 302.488L39.238 257.108C41.3 186.968 14.478 88.968 14.478 88.968L112.476 15.438L248.346 26.226L257.916 128.166C257.916 128.166 342.512 116.82 408.526 135.387" stroke="#080707" stroke-width="2px" class="color-1"/>
<path d="M240.06 30.675L241.638 31.405C248.453 64.147 249.432 99.689 254.295 133.895C265.615 132.805 277.546 129.271 288.502 131.22C296.779 130.489 305.297 128.057 313.45 130.852C320.269 129.877 328.911 129.758 336.214 130.122L337.065 130.852C344.004 131.099 352.158 129.877 358.127 132.805C363.479 133.292 369.446 130.489 372.85 135.237C377.842 135.72 385.144 133.165 386.845 139.984C392.079 139.254 396.707 136.818 402.429 138.04C404.866 139.498 404.99 142.784 404.866 145.216C412.895 142.541 420.319 138.284 428.723 136.455L429.813 138.04C424.95 171.149 421.664 203.401 418.134 237.117C410.703 244.416 401.82 250.263 393.905 257.198L350.945 294.935L305.177 339.117C303.716 339.605 304.567 337.898 304.083 337.412C305.297 331.204 306.031 324.878 306.878 318.546C271.584 297.491 235.185 279.232 197.578 263.771C180.78 272.536 164.341 283.736 148.034 293.838C129.163 286.894 111.154 278.014 92.651 270.1C77.681 264.869 62.952 258.9 47.734 254.16C46.276 253.67 46.64 251.721 46.64 250.627L45.546 232.007L39.581 177.963C35.807 148.144 31.063 119.291 23.393 91.42L24.004 89.228C53.944 64.276 85.228 41.756 117.356 21.676L186.011 26.3L240.051 30.658L240.06 30.675Z" stroke="#080707" stroke-width="2px" class="color-2"/>
<path d="M238.96 33.598C244.19 67.554 246.506 101.031 249.677 134.988C246.997 135.599 243.835 135.352 241.153 136.33C240.913 135.716 241.029 134.745 240.062 134.501L221.918 137.181L171.044 146.185L158.386 148.138C156.074 148.745 157.288 151.42 157.288 152.885C161.062 186.598 162.886 221.896 163.621 256.825C166.173 258.167 168.609 255.248 171.292 254.757L171.896 254.153C178.715 256.709 185.775 258.653 192.71 260.965C178.104 269.487 162.763 277.64 148.281 287.015C147.183 236.988 146.089 186.355 139.033 137.545C133.799 100.543 127.342 62.445 118.457 27.025C123.692 25.927 129.29 27.025 134.656 27.025C170.306 28.488 204.026 31.659 238.966 33.603L238.96 33.598Z" stroke="#080707" stroke-width="2px" class="color-3"/>
<path d="M115.41 28.731C121.492 53.443 128.192 77.904 131.23 103.831L134.647 124.646L141.459 180.758C144.374 214.838 146.203 251.234 145.476 286.528C114.922 272.529 83.522 262.183 52.113 250.257L51.262 249.158C48.95 214.108 44.809 180.875 39.575 146.798C36.292 127.688 32.395 108.945 28.012 90.321C55.399 67.93 85.098 46.508 115.406 28.739L115.41 28.731Z" stroke="#080707" stroke-width="2px" class="color-4"/>
<path d="M230.68 42.115C232.509 46.132 232.749 50.88 233.476 55.508C236.403 75.832 238.352 96.771 240.787 116.975C240.544 117.586 240.057 117.954 240.057 118.56C211.935 123.184 182.359 124.765 154.848 132.312C151.806 132.192 153.51 127.932 152.416 125.987C148.643 97.869 141.216 70.358 135.131 43.209L138.657 42.359C169.327 40.908 199.987 42.122 230.667 42.122L230.68 42.115Z" stroke="#080707" stroke-width="2px" class="color-2"/>
<path d="M230.19 44.674C233.843 68.776 236.893 92.514 238.711 116.736C214.493 120.017 189.293 122.334 165.563 127.325C162.401 127.689 159.474 128.419 156.188 128.419L150.957 99.203L137.925 46.013C167.395 43.946 199.885 44.43 230.195 44.673L230.19 44.674Z" stroke="#080707" stroke-width="2px" class="color-5"/>
<path d="M42.014 95.069C52.356 141.076 58.081 190.981 63.313 238.569C70.372 241.732 77.802 243.8 85.226 246.24C98.738 251.715 113.464 255.488 126.37 261.573C104.697 255.005 84.128 247.092 62.339 240.394C60.27 230.659 60.27 220.553 58.936 210.819L51.87 153.979C50.045 146.309 49.318 138.035 47.733 130.118L40.918 95.303L41.405 93.602C58.083 83.137 74.271 69.992 91.065 59.886L101.168 52.343C82.788 67.92 61.973 81.308 42.012 95.067L42.014 95.069Z" stroke="#080707" stroke-width="2px" class="color-2"/>
<path d="M217.04 59.157C221.907 62.08 219.967 68.169 219.476 72.55C217.775 72.303 215.215 74.495 214.852 71.699C215.091 69.747 213.023 69.143 211.566 68.776C199.032 68.652 185.149 70.358 173.226 74.13C171.281 75.715 171.637 78.51 169.936 79.729C167.504 79.729 165.188 80.703 163 80.703C161.905 76.079 160.201 72.062 161.414 67.071C163.363 64.512 165.187 60.619 168.598 59.888C184.188 58.306 201.358 59.038 217.048 59.157H217.04Z" stroke="#080707" stroke-width="2px" class="color-2"/>
<path d="M216.8 60.986C219.356 62.204 218.505 65.49 218.389 67.678L215.706 65.729C199.522 66.097 184.062 66.341 168.601 70.601C165.802 71.576 164.225 75.469 163.857 77.537C163.242 74.742 162.276 71.452 163.003 68.652C165.071 63.421 171.037 60.866 176.511 60.499L216.791 60.986H216.8Z" stroke="#080707" stroke-width="2px" class="color-6"/>
<path d="M217.04 69.507C216.561 70.237 218.018 71.208 216.676 71.452C215.826 69.747 214.852 67.678 212.656 67.555H212.052C214.002 67.554 216.672 67.195 217.032 69.507H217.04Z" stroke="#080707" stroke-width="2px" class="color-7"/>
<path d="M193.68 68.409C186.861 69.874 178.463 69.507 171.766 73.157C168.48 74.618 170.305 79.606 165.805 78.879C165.805 76.324 167.754 72.67 170.796 71.699C178.096 69.874 186.006 68.776 193.676 68.409H193.68Z" stroke="#080707" stroke-width="2px" class="color-8"/>
<path d="M217.29 86.058L218.624 99.45L217.777 100.544C206.457 101.761 195.256 103.467 184.427 104.924C182.478 97.868 181.988 90.074 180.531 82.772L181.134 82.161C192.701 81.43 204.876 79.241 215.952 79.729L217.302 86.062L217.29 86.058Z" stroke="#080707" stroke-width="2px" class="color-2"/>
<path d="M214.49 81.066C215.828 86.788 216.194 92.877 216.678 99.082L185.518 102.979C184.06 96.771 183.089 89.831 182.231 83.869C192.581 82.65 204.021 82.043 214.491 81.065L214.49 81.066Z" stroke="#080707" stroke-width="2px" class="color-9"/>
<path d="M252.83 144.36C251.736 144.971 251.373 145.821 250.639 146.552C250.272 154.587 248.447 162.984 248.814 171.144C244.557 170.166 240.296 168.705 235.909 168.099C236.277 161.77 236.89 153.856 237.858 147.04C252.587 140.1 268.169 135.232 284.966 134.258C292.146 133.771 299.572 131.702 307.114 132.066C288.974 134.616 269.984 138.036 252.814 144.356L252.83 144.36Z" stroke="#080707" stroke-width="2px" class="color-10"/>
<path d="M324.89 132.8C305.172 134.864 284.968 139.005 266.832 146.551L265.247 148.137C264.876 157.017 263.541 166.029 264.395 174.794L252.34 171.747C252.464 164.324 252.712 155.312 253.926 147.402C273.523 137.907 296.043 134.864 318.436 132.8C320.626 133.29 322.456 132.68 324.886 132.8H324.89Z" stroke="#080707" stroke-width="2px" class="color-11"/>
<path d="M354.23 133.89C330.129 136.573 306.271 141.928 284.119 150.569L282.781 152.27C281.32 160.791 280.229 169.556 279.495 178.32L267.441 175.765L269.025 149.839C280.098 144.241 291.666 141.439 303.596 137.788C320.396 135.488 336.706 132.198 354.236 133.898L354.23 133.89Z" stroke="#080707" stroke-width="2px" class="color-12"/>
<path d="M236.77 143.76L234.822 145.709L232.627 167.007C229.224 166.643 225.326 166.036 221.913 164.938C221.797 158.362 222.041 153.255 222.523 146.315C234.946 138.524 251.252 137.427 265.492 134.752C256.852 138.032 245.782 139.492 236.772 143.752L236.77 143.76Z" stroke="#080707" stroke-width="2px" class="color-13"/>
<path d="M370.17 137.18C346.802 141.316 322.821 146.431 300.912 155.559L298.603 157.995C297.021 166.273 296.167 173.936 295.923 182.7L282.531 179.171C283.389 170.167 284.24 162.009 286.065 153.372C303.961 145.334 323.918 141.074 343.635 137.181C352.031 136.206 359.826 134.501 368.463 135.352L370.173 137.182L370.17 137.18Z" stroke="#080707" stroke-width="2px" class="color-14"/>
<path d="M383.56 139.13C383.931 139.984 383.808 141.079 384.412 141.809C360.193 148.142 336.336 155.445 314.063 166.765C312.114 173.456 310.657 179.786 310.657 187.089L299.7 184.046C299.821 175.281 300.794 167.128 302.256 158.608C320.272 150.45 339.989 146.07 359.219 140.835C366.643 139.984 373.702 138.156 381.613 138.284L383.573 139.124L383.56 139.13Z" stroke="#080707" stroke-width="2px" class="color-15"/>
<path d="M401.09 144.61V146.798C376.381 156.536 352.403 167.857 327.088 175.89L326.593 175.523C325.259 176.984 322.58 176.86 321.602 179.172L321.116 190.128L314.791 188.667C314.18 181.852 315.521 175.402 316.983 169.189C337.674 158.12 359.828 150.446 382.467 144.121C387.941 143.143 393.543 141.686 398.654 140.464C401.694 140.104 400.594 142.784 401.084 144.614L401.09 144.61Z" stroke="#080707" stroke-width="2px" class="color-16"/>
<path d="M414.72 235.29C380.277 261.822 346.924 294.201 314.792 323.418C317.711 303.453 320.391 281.911 323.553 261.336L329.275 205.347C329.766 198.535 330.86 191.595 330.733 184.291C335.117 181.129 340.838 179.911 344.736 176.989C351.551 175.283 358.367 171.15 365.428 168.711C385.631 160.677 405.102 150.818 424.949 141.811L420.809 180.515L414.729 235.295L414.72 235.29Z" stroke="#080707" stroke-width="2px" class="color-17"/>
<path d="M363.84 167.37L330.368 182.097L329.026 183.558C325.743 231.637 319.53 278.986 312.351 325.608L309.919 328.047C317.338 278.742 323.064 228.232 326.107 180.147L341.927 173.699L393.171 153.858C402.179 150.085 410.817 145.824 419.948 142.658L363.828 167.368L363.84 167.37Z" stroke="#080707" stroke-width="2px" class="color-18"/>
<path d="M203.9 143.27L204.75 143.02L204.64 143.27H203.9Z" stroke="#080707" stroke-width="2px" class="color-19"/>
<path d="M200 144.12L202.44 143.51H203.3L200 144.12Z" stroke="#080707" stroke-width="2px" class="color-19"/>
<path d="M220.09 143.76C218.992 150.7 218.749 158.002 218.625 164.572C214.971 163.481 210.958 163.114 207.185 162.383C208.887 157.392 204.023 148.508 212.304 146.559C214.624 144.969 217.414 144.359 220.094 143.759L220.09 143.76Z" stroke="#080707" stroke-width="2px" class="color-20"/>
<path d="M210.11 144C204.145 145.214 198.303 146.555 192.705 148.748L191.847 150.333L192.342 160.431C190.509 160.311 186.737 160.915 186.861 158.239C186.737 154.35 186.737 152.033 188.569 149.235C193.803 146.676 199.881 146.189 205.483 144.611C206.703 144.341 208.533 144.101 210.113 143.981L210.11 144Z" stroke="#080707" stroke-width="2px" class="color-21"/>
<path d="M176.76 152.03C174.564 152.393 171.765 152.884 171.765 155.56C171.525 156.291 172.129 157.142 171.89 158.236L161.42 157.261C160.446 155.44 160.446 152.146 161.181 150.693C170.181 148.137 180.167 147.889 189.419 145.942C185.899 149.112 180.179 148.502 176.769 152.032L176.76 152.03Z" stroke="#080707" stroke-width="2px" class="color-22"/>
<path d="M203.53 161.89L195.38 160.792L195.864 150.694L206.09 146.797C202.32 150.707 204.39 156.667 203.53 161.897V161.89Z" stroke="#080707" stroke-width="2px" class="color-23"/>
<path d="M183.82 159.34C182.606 158.853 179.436 160.067 179.556 157.759C179.436 154.713 181.261 152.528 183.82 150.939V159.339V159.34Z" stroke="#080707" stroke-width="2px" class="color-24"/>
<path d="M177 158.36H174.074C173.831 156.538 175.295 155.081 176.757 153.983C176.887 155.813 176.517 156.783 177.007 158.363L177 158.36Z" stroke="#080707" stroke-width="2px" class="color-25"/>
<path d="M216.68 166.28C225.201 169.078 236.034 170.537 244.918 172.609C270.241 178.937 295.796 185.994 320.873 193.664C318.557 232.491 313.936 274.361 307.972 313.314C262.815 288.728 216.8 263.893 167.142 249.167C165.564 219.225 164.339 188.921 161.42 159.098L162.031 158.854C180.881 160.314 198.291 163.484 216.671 166.284L216.68 166.28Z" stroke="#080707" stroke-width="2px" class="color-26"/>
<path d="M410.09 175.77C409.846 179.056 410.696 183.321 408.512 185.993C403.026 191.227 396.457 194.517 390.376 198.534C381.117 202.428 373.693 212.653 362.498 209.73L351.788 206.808L352.027 195.244C356.172 193.539 362.012 190.01 366.269 193.3C380.884 191.962 392.807 184.412 403.269 174.433C403.269 172.852 403.393 170.66 402.421 169.195C402.909 168.348 404.002 167.981 404.982 167.861C407.552 169.181 409.742 172.471 410.102 175.761L410.09 175.77Z" stroke="#080707" stroke-width="2px" class="color-2"/>
<path d="M405.46 171.99C405.827 178.318 398.281 181.361 393.897 184.891C385.748 190.369 377.107 194.51 367.97 197.672C363.471 198.526 358.723 197.305 354.587 195.604C358.358 195.361 362.256 191.463 365.785 194.75C380.637 194.264 392.682 186.109 403.879 176.375C405.951 174.426 404.126 172.234 404.366 169.803C405.336 169.913 405.096 171.253 405.456 171.983L405.46 171.99Z" stroke="#080707" stroke-width="2px" class="color-27"/>
<path d="M406.57 185.62C395.976 194.509 383.558 200.226 372.119 207.286C365.91 209.598 358.851 207.286 352.885 205.462C352.646 202.419 353.252 200.227 353.373 197.184C360.315 199.984 368.957 200.471 375.648 196.697C386.485 191.954 397.074 185.868 405.959 177.224C406.813 175.886 407.54 174.301 407.174 172.477C409.354 176.377 409.114 181.847 406.564 185.617L406.57 185.62Z" stroke="#080707" stroke-width="2px" class="color-28"/>
<path d="M403.88 204.37L400.597 232.488C385.381 242.47 370.899 252.569 356.412 263.526C355.801 263.649 355.194 263.526 355.074 262.919L360.549 225.916L362.74 223.725L402.666 203.52C403.136 203.64 403.866 203.76 403.866 204.37H403.88Z" stroke="#080707" stroke-width="2px" class="color-2"/>
<path d="M399.14 231.39C385.137 241.248 370.899 250.133 357.262 260.965C357.997 250.009 360.912 237.475 362.257 225.911C375.275 218.975 388.91 212.522 401.931 205.34C401.701 213.74 400.111 222.75 399.141 231.39H399.14Z" stroke="#080707" stroke-width="2px" class="color-29"/>
<defs>
<linearGradient id="paint0_linear" x1="14.48" y1="186.01" x2="434.31" y2="186.01" gradientUnits="userSpaceOnUse">
<stop stop-color="#1E398D"/>
<stop offset="0.9944" stop-color="#00B9F2"/>
</linearGradient>
<linearGradient id="paint1_linear" x1="245.28" y1="152.05" x2="132.49" y2="156.91" gradientUnits="userSpaceOnUse">
<stop stop-color="#808285"/>
<stop offset="0.5843" stop-color="#A7A9AC"/>
<stop offset="0.9944" stop-color="#C0CFE6"/>
</linearGradient>
<linearGradient id="paint2_linear" x1="38.576" y1="169.83" x2="145.49" y2="155.63" gradientUnits="userSpaceOnUse">
<stop stop-color="#808285"/>
<stop offset="0.5843" stop-color="#A7A9AC"/>
<stop offset="0.9944" stop-color="#C0CFE6"/>
</linearGradient>
<linearGradient id="paint3_linear" x1="137.93" y1="86.432" x2="238.71" y2="86.432" gradientUnits="userSpaceOnUse">
<stop stop-color="#808285"/>
<stop offset="0.5843" stop-color="#A7A9AC"/>
<stop offset="0.9944" stop-color="#C0CFE6"/>
</linearGradient>
<linearGradient id="paint4_linear" x1="219.1" y1="68.338" x2="161.09" y2="69.144" gradientUnits="userSpaceOnUse">
<stop stop-color="#808285"/>
<stop offset="0.5843" stop-color="#A7A9AC"/>
<stop offset="0.9944" stop-color="#C0CFE6"/>
</linearGradient>
<linearGradient id="paint5_linear" x1="219.38" y1="69.433" x2="159.4" y2="70.266" gradientUnits="userSpaceOnUse">
<stop stop-color="#808285"/>
<stop offset="0.5843" stop-color="#A7A9AC"/>
<stop offset="0.9944" stop-color="#C0CFE6"/>
</linearGradient>
<linearGradient id="paint6_linear" x1="219.16" y1="73.139" x2="161.46" y2="73.94" gradientUnits="userSpaceOnUse">
<stop stop-color="#808285"/>
<stop offset="0.5843" stop-color="#A7A9AC"/>
<stop offset="0.9944" stop-color="#C0CFE6"/>
</linearGradient>
<linearGradient id="paint7_linear" x1="182.23" y1="92.023" x2="216.68" y2="92.023" gradientUnits="userSpaceOnUse">
<stop stop-color="#1E398D"/>
<stop offset="0.9944" stop-color="#00B9F2"/>
</linearGradient>
<linearGradient id="paint8_linear" x1="274.8" y1="128.38" x2="265.88" y2="171.47" gradientUnits="userSpaceOnUse">
<stop stop-color="#C0870F"/>
<stop offset="1" stop-color="#FFFBCC"/>
</linearGradient>
<linearGradient id="paint9_linear" x1="291.14" y1="131.77" x2="282.21" y2="174.86" gradientUnits="userSpaceOnUse">
<stop stop-color="#C0870F"/>
<stop offset="1" stop-color="#FFFBCC"/>
</linearGradient>
<linearGradient id="paint10_linear" x1="312.79" y1="136.25" x2="303.86" y2="179.34" gradientUnits="userSpaceOnUse">
<stop stop-color="#C0870F"/>
<stop offset="1" stop-color="#FFFBCC"/>
</linearGradient>
<linearGradient id="paint11_linear" x1="247.7" y1="122.72" x2="238.72" y2="166.05" gradientUnits="userSpaceOnUse">
<stop stop-color="#C0870F"/>
<stop offset="1" stop-color="#FFFBCC"/>
</linearGradient>
<linearGradient id="paint12_linear" x1="329.28" y1="139.66" x2="320.35" y2="182.75" gradientUnits="userSpaceOnUse">
<stop stop-color="#C0870F"/>
<stop offset="1" stop-color="#FFFBCC"/>
</linearGradient>
<linearGradient id="paint13_linear" x1="344.84" y1="142.9" x2="335.92" y2="185.98" gradientUnits="userSpaceOnUse">
<stop stop-color="#C0870F"/>
<stop offset="1" stop-color="#FFFBCC"/>
</linearGradient>
<linearGradient id="paint14_linear" x1="361.45" y1="146.17" x2="352.49" y2="189.39" gradientUnits="userSpaceOnUse">
<stop stop-color="#C0870F"/>
<stop offset="1" stop-color="#FFFBCC"/>
</linearGradient>
<linearGradient id="paint15_linear" x1="424.8" y1="207.6" x2="330.67" y2="249.79" gradientUnits="userSpaceOnUse">
<stop stop-color="#808285"/>
<stop offset="0.5843" stop-color="#A7A9AC"/>
<stop offset="0.9944" stop-color="#C0CFE6"/>
</linearGradient>
<linearGradient id="paint16_linear" x1="431.29" y1="223.71" x2="338.78" y2="239.94" gradientUnits="userSpaceOnUse">
<stop stop-color="#808285"/>
<stop offset="0.5843" stop-color="#A7A9AC"/>
<stop offset="0.9944" stop-color="#C0CFE6"/>
</linearGradient>
<linearGradient id="paint17_linear" x1="221.45" y1="117.33" x2="212.53" y2="160.42" gradientUnits="userSpaceOnUse">
<stop stop-color="#C0870F"/>
<stop offset="1" stop-color="#FFFBCC"/>
</linearGradient>
<linearGradient id="paint18_linear" x1="205.7" y1="114.06" x2="196.78" y2="157.16" gradientUnits="userSpaceOnUse">
<stop stop-color="#C0870F"/>
<stop offset="1" stop-color="#FFFBCC"/>
</linearGradient>
<linearGradient id="paint19_linear" x1="160.66" y1="152.09" x2="189.42" y2="152.09" gradientUnits="userSpaceOnUse">
<stop offset="0.0112"/>
<stop offset="0.2584" stop-color="#58595B"/>
<stop offset="0.5056" stop-color="#808285"/>
<stop offset="0.7697" stop-color="#A7A9AC"/>
<stop offset="0.9944" stop-color="#C0CFE6"/>
</linearGradient>
<linearGradient id="paint20_linear" x1="208.33" y1="114.62" x2="199.41" y2="157.7" gradientUnits="userSpaceOnUse">
<stop stop-color="#C0870F"/>
<stop offset="1" stop-color="#FFFBCC"/>
</linearGradient>
<linearGradient id="paint21_linear" x1="191.46" y1="110.87" x2="182.48" y2="154.21" gradientUnits="userSpaceOnUse">
<stop stop-color="#C0870F"/>
<stop offset="1" stop-color="#FFFBCC"/>
</linearGradient>
<linearGradient id="paint22_linear" x1="185.49" y1="109.92" x2="176.57" y2="152.97" gradientUnits="userSpaceOnUse">
<stop stop-color="#C0870F"/>
<stop offset="1" stop-color="#FFFBCC"/>
</linearGradient>
<linearGradient id="paint23_linear" x1="161.42" y1="236.08" x2="320.87" y2="236.08" gradientUnits="userSpaceOnUse">
<stop stop-color="#808285"/>
<stop offset="0.5843" stop-color="#A7A9AC"/>
<stop offset="0.9944" stop-color="#C0CFE6"/>
</linearGradient>
<linearGradient id="paint24_linear" x1="408.33" y1="174.84" x2="359.79" y2="194.55" gradientUnits="userSpaceOnUse">
<stop offset="0.0112"/>
<stop offset="0.2584" stop-color="#58595B"/>
<stop offset="0.5056" stop-color="#808285"/>
<stop offset="0.7697" stop-color="#A7A9AC"/>
<stop offset="0.9944" stop-color="#C0CFE6"/>
</linearGradient>
<linearGradient id="paint25_linear" x1="410.84" y1="181.28" x2="362.42" y2="200.94" gradientUnits="userSpaceOnUse">
<stop offset="0.0112"/>
<stop offset="0.2584" stop-color="#58595B"/>
<stop offset="0.5056" stop-color="#808285"/>
<stop offset="0.7697" stop-color="#A7A9AC"/>
<stop offset="0.9944" stop-color="#C0CFE6"/>
</linearGradient>
<linearGradient id="paint26_linear" x1="357.27" y1="233.16" x2="401.93" y2="233.16" gradientUnits="userSpaceOnUse">
<stop stop-color="#1E398D"/>
<stop offset="0.9944" stop-color="#00B9F2"/>
</linearGradient>
</defs>
</svg>

